Fly_normalized_Motion_pl17
version=1
nRows=25
nColumns=43
inDegrees=yes
endheader
time		pelvis_tilt		pelvis_list		pelvis_rotation		pelvis_tx		pelvis_ty		pelvis_tz		hip_flexion_r		hip_adduction_r		hip_rotation_r		knee_angle_r		ankle_angle_r		subtalar_angle_r		mtp_angle_r		hip_flexion_l		hip_adduction_l		hip_rotation_l		knee_angle_l		ankle_angle_l		subtalar_angle_l		mtp_angle_l		lumbar_extension		lumbar_bending		lumbar_rotation		neck_flexion		neck_lateral_bending		neck_rotation		arm_flex_r		arm_add_r		arm_rot_r		elbow_flex_r		pro_sup_r		wrist_flex_r		wrist_dev_r		hand_finger_flex_r		arm_flex_l		arm_add_l		arm_rot_l		elbow_flex_l		pro_sup_l		wrist_flex_l		wrist_dev_l		hand_finger_flex_l		
0.986667		1.804111		-8.771546		89.374431		0.020599		1.563718		0.952297		47.505667		0.349495		-5.442453		-34.471643		-18.680583		-0.740725		14.840486		48.205369		-9.480869		-8.574126		-35.849610		-21.091499		7.351219		25.420392		-42.353633		0.049824		-4.760717		6.030248		-3.922367		7.810326		-10.793781		-23.423724		1.174606		38.730605		119.411902		6.002124		3.948422		9.338550		-8.848938		-24.519620		-5.705331		54.393073		108.430427		-2.917585		-2.418922		17.078383		
0.991086		1.646543		-8.441161		89.281659		0.020222		1.550301		0.942797		47.010210		0.204424		-5.336379		-33.990100		-19.001811		-0.442884		14.748885		47.532184		-9.452789		-8.956323		-35.310647		-21.413916		7.560157		25.387026		-41.971340		-0.148592		-4.819620		4.411098		-3.809073		7.911512		-13.262778		-23.344713		0.395187		38.390287		119.110789		5.882781		4.085894		9.236647		-11.187195		-23.786281		-6.102841		54.151259		107.755015		-2.994179		-2.938953		16.730722		
0.995505		1.395003		-8.186800		89.074772		0.020020		1.536673		0.933261		46.586957		0.064527		-5.146305		-33.477544		-19.290450		-0.142246		14.616058		46.820195		-9.399568		-9.438102		-34.601461		-21.715793		7.786701		25.336260		-41.492928		-0.499071		-4.879738		2.827537		-3.706898		7.965818		-15.721916		-23.189088		-0.548848		38.130941		118.928801		5.945807		4.287223		9.082881		-13.499450		-23.153257		-6.267407		53.893404		106.970200		-3.143536		-3.408392		16.139838		
0.999924		1.263164		-7.849368		89.004907		0.019557		1.522867		0.923609		46.118197		-0.083236		-5.123962		-33.102541		-19.738145		0.057590		14.498536		46.154083		-9.345513		-9.724204		-34.108929		-22.003140		7.951730		25.305305		-41.059036		-0.674890		-4.928660		1.097183		-3.583366		7.990605		-18.214454		-23.202726		-1.148047		37.972375		118.782980		5.973279		4.216031		8.993926		-15.821816		-22.534422		-6.379248		53.800563		106.523749		-3.378187		-3.680844		15.804238		
1.004343		1.096180		-7.547829		88.871313		0.019277		1.508872		0.913891		45.669310		-0.209164		-5.077554		-32.717067		-20.092242		0.288958		14.380325		45.448500		-9.305233		-10.066209		-33.531818		-22.262184		8.168402		25.266001		-40.576789		-0.929164		-4.955624		-0.627918		-3.483036		8.004826		-20.689181		-23.111127		-1.916527		37.847356		118.657021		6.057018		4.148975		8.884386		-18.140762		-21.940710		-6.432684		53.764935		106.019648		-3.639055		-4.001601		15.393656		
1.008763		0.825899		-7.252582		88.625867		0.019333		1.494712		0.904164		45.230214		-0.330809		-4.875628		-32.349280		-20.307652		0.652906		14.198422		44.661868		-9.272684		-10.589380		-32.877455		-22.453907		8.500778		25.181041		-40.092967		-1.351955		-4.875442		-2.270919		-3.446808		7.932849		-23.219222		-22.811804		-3.187060		37.782323		118.814533		6.380049		4.121952		8.698464		-20.386823		-21.534268		-6.210072		53.783795		105.279239		-3.819509		-4.431707		14.708494		
1.013182		0.643718		-6.920951		88.462231		0.019216		1.480439		0.894345		44.726401		-0.446773		-4.797370		-31.997280		-20.550064		0.916818		14.011193		43.891119		-9.244012		-10.960347		-32.311111		-22.681194		8.748792		25.094914		-39.625491		-1.643588		-4.804879		-3.993560		-3.365417		7.863281		-25.752915		-22.572565		-4.273002		37.829547		119.021508		6.643039		3.941060		8.519026		-22.621519		-21.080030		-6.043222		53.841950		104.630629		-3.934729		-4.795938		14.130487		
1.017601		0.597769		-6.608677		88.449397		0.019016		1.465962		0.884521		44.163987		-0.542388		-4.921025		-31.556985		-20.821587		1.101555		13.928345		43.195545		-9.221481		-11.066604		-31.765503		-22.974728		8.954430		25.063281		-39.142109		-1.743128		-4.768612		-5.698691		-3.293731		7.846115		-28.228905		-22.434248		-4.897309		37.849108		118.816881		6.618299		3.610460		8.495652		-24.904530		-20.528733		-6.173730		54.044338		104.384725		-4.033634		-5.082309		13.998378		
1.022020		0.461593		-6.236475		88.352661		0.018616		1.451411		0.874470		43.570907		-0.707922		-4.938870		-31.220232		-21.000041		1.486119		13.867498		42.409208		-9.171083		-11.357359		-31.278552		-23.297901		9.382291		25.016360		-38.696399		-1.922555		-4.626452		-7.448508		-3.185833		7.734926		-30.773880		-22.132701		-6.013733		37.912864		118.598311		6.632559		3.283469		8.505716		-27.032331		-19.903729		-6.290552		54.150940		104.235279		-4.174552		-5.280204		13.742162		
1.026439		0.337711		-5.913561		88.220177		0.018368		1.436583		0.864480		42.989169		-0.828619		-4.951978		-30.813215		-21.247520		1.849513		13.839494		41.631881		-9.120612		-11.560547		-30.704236		-23.518302		9.739095		24.982145		-38.214539		-2.111037		-4.528639		-9.071368		-3.138653		7.622937		-33.269525		-21.887288		-6.979257		38.111442		118.407065		6.641295		2.952777		8.528230		-29.246909		-19.375622		-6.378227		54.398630		104.252556		-4.290217		-5.394465		13.521094		
1.030859		0.186897		-5.642462		88.056586		0.018401		1.421583		0.854425		42.420636		-0.935162		-4.962867		-30.314094		-21.460633		2.254848		13.877448		40.821437		-9.074477		-11.809599		-30.032626		-23.649438		10.155614		24.952965		-37.681802		-2.358989		-4.328224		-10.572179		-3.156399		7.489114		-35.736008		-21.521645		-8.093157		38.283649		118.187212		6.756530		2.676393		8.547670		-31.379478		-18.861987		-6.568071		54.695810		104.451118		-4.376871		-5.423217		13.266241		
1.035278		0.028953		-5.319700		87.869343		0.018256		1.406451		0.844288		41.848368		-1.046888		-4.933612		-29.918383		-21.773413		2.668404		13.948025		39.997683		-9.014585		-12.090381		-29.489710		-23.746035		10.585723		24.922623		-37.188241		-2.594832		-4.106663		-12.134386		-3.168966		7.336951		-38.184907		-21.146753		-9.337584		38.537520		118.019653		6.986700		2.427040		8.543777		-33.525055		-18.306097		-6.818928		55.107316		104.754310		-4.353329		-5.484339		12.994153		
1.039697		-0.065419		-5.007401		87.725966		0.017928		1.391149		0.834070		41.288727		-1.147130		-5.044683		-29.554570		-22.206312		2.936828		13.976526		39.241843		-8.973616		-12.276846		-29.047242		-23.894116		10.922516		24.908503		-36.649214		-2.737810		-3.941238		-13.909422		-3.119415		7.252049		-40.594574		-20.872534		-10.441931		38.869945		117.648595		7.203254		2.135032		8.495908		-35.676537		-17.603041		-7.238610		55.486754		104.843895		-4.306379		-5.704855		12.868038		
1.044116		-0.139455		-4.764188		87.599596		0.017952		1.375658		0.823919		40.745739		-1.207972		-5.220469		-29.096241		-22.581678		3.202931		13.994431		38.531976		-8.951970		-12.418356		-28.543755		-23.991659		11.249437		24.904265		-36.066907		-2.889266		-3.718810		-15.494629		-3.149254		7.160192		-42.896038		-20.511041		-11.454892		39.156600		117.268579		7.431283		1.972293		8.428536		-37.806094		-16.995565		-7.702661		55.966666		104.858485		-4.172451		-6.000279		12.846969		
1.048535		-0.201698		-4.514085		87.468623		0.017938		1.360024		0.813791		40.202090		-1.255278		-5.397103		-28.654241		-22.927361		3.515641		14.021545		37.824857		-8.945415		-12.554579		-28.077223		-24.066338		11.598527		24.906585		-35.496063		-3.015911		-3.491686		-17.082200		-3.199385		7.036109		-45.147469		-20.125745		-12.505760		39.520683		116.975412		7.630651		1.913282		8.298300		-39.940233		-16.344764		-8.235530		56.544955		104.837732		-3.945407		-6.352417		12.884588		
1.052955		-0.269063		-4.200057		87.297197		0.017871		1.344343		0.803569		39.585062		-1.325208		-5.525717		-28.267787		-23.094599		4.184698		14.186532		37.042137		-8.978451		-12.842255		-27.653419		-24.018146		12.207708		24.943968		-34.999071		-3.135668		-3.194041		-18.663564		-3.319932		6.796620		-47.396623		-19.496277		-14.165186		40.087902		117.228135		8.009427		2.304088		7.851301		-41.971303		-15.530457		-9.145700		57.075146		104.935440		-3.271571		-6.673190		13.073092		
1.057374		-0.314189		-4.018108		87.246784		0.017878		1.328295		0.793600		39.059085		-1.380825		-5.669070		-27.788346		-23.341376		4.366061		14.179396		36.437440		-8.907310		-12.768024		-27.186437		-24.122707		12.233555		24.951085		-34.419698		-3.216230		-3.057563		-20.057346		-3.325706		6.753358		-49.490145		-19.229199		-14.620728		40.525348		117.250440		7.890764		1.986175		7.713858		-44.079847		-14.961339		-9.585830		57.734645		104.680396		-3.345896		-7.056179		13.051002		
1.061793		-0.353040		-3.788781		87.177914		0.017658		1.312125		0.783550		38.527672		-1.454908		-5.769136		-27.437445		-23.490290		4.762722		14.223142		35.819336		-8.868221		-12.802811		-26.843786		-24.222577		12.331731		24.964859		-33.889367		-3.261008		-2.897564		-21.560636		-3.313947		6.660753		-51.565910		-18.908762		-15.302244		41.059288		117.318417		7.646113		1.769124		7.592643		-46.074889		-14.236244		-10.175113		58.294651		104.249797		-3.439132		-7.379280		13.060360		
1.066212		-0.388749		-3.565237		87.091111		0.017522		1.295787		0.773599		38.013348		-1.504253		-5.870384		-27.102519		-23.631033		5.114138		14.281173		35.213674		-8.842835		-12.832632		-26.519446		-24.305284		12.383878		24.978599		-33.386351		-3.316159		-2.721843		-22.941541		-3.337826		6.601897		-53.540373		-18.575864		-15.988864		41.603584		117.359687		7.452517		1.556944		7.551845		-48.033106		-13.565590		-10.709874		58.912748		103.800502		-3.564916		-7.670317		13.079083		
1.070631		-0.410316		-3.302269		86.970184		0.017309		1.279396		0.763650		37.501051		-1.536524		-6.000584		-26.859109		-23.770457		5.485424		14.401053		34.595444		-8.856549		-12.940330		-26.298699		-24.395641		12.418554		25.002330		-32.948700		-3.361280		-2.533679		-24.288615		-3.364633		6.563168		-55.399681		-18.192016		-16.930347		42.160282		117.456463		7.332216		1.401396		7.587770		-49.856200		-12.839439		-11.264693		59.424378		103.274300		-3.747482		-7.841908		13.118537		
1.075051		-0.408731		-2.970973		86.836715		0.017015		1.263019		0.753774		36.954344		-1.559754		-6.144932		-26.699934		-23.967994		5.901547		14.669833		33.940222		-8.900945		-13.119494		-26.168837		-24.502194		12.457819		25.060318		-32.616423		-3.380247		-2.325521		-25.576890		-3.428783		6.544252		-57.124119		-17.646858		-18.397239		42.752010		117.830242		7.448601		1.356087		7.796423		-51.563133		-12.127159		-11.771836		59.925557		102.607214		-3.973482		-7.836366		13.255056		
1.079470		-0.390904		-2.596798		86.686044		0.017044		1.246569		0.744063		36.337575		-1.534592		-6.388492		-26.483802		-24.273336		6.237048		15.454771		33.236924		-8.979779		-13.194197		-26.009365		-24.602431		12.505015		25.270134		-32.415109		-3.408547		-2.141352		-26.486347		-3.684886		6.495263		-58.512791		-16.748833		-20.943349		43.309082		119.538679		8.264694		1.407089		8.465929		-53.178547		-11.708198		-11.920903		60.479143		101.670050		-4.303540		-7.585969		13.772697		
1.083889		-0.361726		-2.380170		86.610658		0.016936		1.229656		0.734560		35.983226		-1.526269		-6.579779		-26.466707		-24.632742		6.322408		15.486252		32.823999		-9.037302		-13.156154		-26.041995		-24.776723		12.448255		25.300606		-32.074191		-3.428249		-2.118453		-27.484316		-3.745788		6.597991		-59.792984		-16.421577		-21.879769		43.631080		119.389340		8.126263		1.072686		8.488077		-54.737339		-11.124789		-12.361905		60.913293		101.412479		-4.506224		-7.822670		13.804171		
1.088308		-0.286126		-2.102788		86.559798		0.016629		1.212731		0.725172		35.587655		-1.524164		-6.839146		-26.533607		-25.007513		6.531121		15.575425		32.399792		-9.129808		-13.133724		-26.174220		-24.964185		12.374594		25.372578		-31.867412		-3.348717		-2.088817		-28.332471		-3.862287		6.723665		-60.857341		-15.834295		-23.624787		43.950201		119.449181		8.239466		1.031765		8.756924		-56.053933		-10.468265		-12.937744		61.236669		101.276118		-4.547701		-7.837849		14.008017		
1.092727		-0.221610		-1.790939		86.472405		0.016007		1.195690		0.715989		35.208368		-1.552514		-7.099209		-26.714093		-25.328771		6.701305		15.715477		31.990929		-9.196566		-13.065108		-26.408273		-25.121954		12.314851		25.476620		-31.772954		-3.254041		-2.100667		-28.933163		-3.978636		6.762311		-61.682357		-15.320385		-25.497581		44.248504		119.875308		8.507627		1.133577		9.165943		-57.166313		-9.847121		-13.381698		61.475556		101.343263		-4.420291		-7.772548		14.333751		
